# xmcd
#
# Track frame offsets:
#	150
#	25123
#	65227
#	124944
#	151519
#	228197
#	269900
#	297689
#
# Disc length: 4334 seconds
#
# Revision: 0
# Processed by: cddbd v1.4PL0 Copyright (c) Steve Scherf et al.
# Submitted via: audiograbber 1.81.02
#
DISCID=7610ec08
DTITLE=Allman Brothers - 1995-11-11 - Bristol TN - Disc 2
DYEAR=1900
DGENRE=
TTITLE0=abb1995-11 - 11d2t01
TTITLE1=abb1995-11 - 11d2t02
TTITLE2=abb1995-11 - 11d2t03
TTITLE3=abb1995-11 - 11d2t04
TTITLE4=abb1995-11 - 11d2t05
TTITLE5=abb1995-11 - 11d2t06
TTITLE6=abb1995-11 - 11d2t07
TTITLE7=abb1995-11 - 11d2t08
EXTD=
EXTT0=
EXTT1=
EXTT2=
EXTT3=
EXTT4=
EXTT5=
EXTT6=
EXTT7=
PLAYORDER=
